<?xml version="1.0" standalone="no"?><!DOCTYPE svg PUBLIC "-//W3C//DTD SVG 1.1//EN" "http://www.w3.org/Graphics/SVG/1.1/DTD/svg11.dtd"><svg t="1761964277852" class="icon" viewBox="0 0 1024 1024" version="1.1" xmlns="http://www.w3.org/2000/svg" p-id="1602" xmlns:xlink="http://www.w3.org/1999/xlink" width="200" height="200"><path d="M581.299548 388.757813l-48.331608 84.034194 484.408318 129.908262c-9.249905 33.176782-18.431545 65.636781-27.988643 99.632743C660.145603 614.134654 333.49766 526.653079 5.894008 438.830178c6.041451-42.665614 16.793186-82.941954 33.347444-121.579934 8.36246-19.45552 18.431545-38.057728 27.442523-57.171923 3.071924-6.382776 6.758233-8.464858 14.403911-6.382776 162.777851 44.030914 325.760498 87.583973 488.640747 131.410092l11.536782 3.652176z m438.704912 83.112617c-309.547564-82.907822-619.060996-165.815643-932.84099-249.74744 24.234069-27.305993 45.737538-53.417349 69.18656-77.41249a431.264029 431.264029 0 0 1 100.212994-75.501071c4.471356-2.389274 10.990662-3.652177 15.803344-2.389275 155.439366 41.402712 310.776334 83.283279 466.249832 124.993184 0.68265 0.238927 1.22877 0.785047 3.27672 2.184479-29.012618 20.82082-55.089841 44.133311-76.934636 74.204037 32.596529 8.806183 63.486434 17.271041 94.308074 25.599368 76.934636 20.616025 153.869271 41.300315 230.769774 61.677412 7.099558 1.809022 11.434385 4.778549 12.936214 12.219432 6.963028 33.722902 14.164984 67.343406 21.36694 101.10044-1.3653 1.023975-2.867129 2.047949-4.334826 3.071924zM925.355061 819.202662c-25.496971 26.179621-50.857412 52.495772-76.695708 78.334068-2.525804 2.491672-8.90858 3.071924-12.799685 2.04795-103.216654-27.305993-206.433308-55.123974-309.649962-82.668895-141.274382-37.887065-282.548764-75.603468-423.823145-113.319871-21.605867-5.734259-43.211734-11.468517-64.578674-17.646498-3.652177-1.023975-8.36246-4.334826-9.488833-7.645678-22.868769-65.090661-30.992302-132.092742-26.964668-200.801447 0.102397-1.160505 0.785047-2.321009 1.809022-5.495331 161.071227 43.211734 322.005924 86.457601 483.281946 129.703467-7.099558 30.173122-14.062586 59.765992-21.36694 90.5535 153.391416 41.061387 305.383401 81.883847 457.409518 122.569776 0.921577 1.50183 1.945552 2.969527 2.867129 4.368959z m-229.7458 170.15047c-245.071288 98.028515-543.047938-18.533943-648.414939-266.677155 23.892744 6.280378 46.966308 12.355962 69.835078 18.533942 107.073626 28.807823 214.078986 57.854573 321.289141 86.355204 8.123533 2.150347 10.069085 5.119874 10.41041 12.902081 1.023975 24.336466 3.413249 48.707065 4.334826 73.043532 0.341325 9.625363 5.256404 12.151167 13.14101 14.199116 71.439304 18.875268 142.878609 38.09186 214.317913 57.206056 3.993501 1.126372 8.123533 2.491672 15.086561 4.437224z m224.045674-782.999353L313.018165 43.951385C397.052359 5.040345 484.943524-7.759339 576.043144 4.460093c142.332489 19.114195 256.949395 86.457601 343.611791 201.859554z" fill="#273B3E" p-id="1603"></path></svg>