<?xml version="1.0" standalone="no"?><!DOCTYPE svg PUBLIC "-//W3C//DTD SVG 1.1//EN" "http://www.w3.org/Graphics/SVG/1.1/DTD/svg11.dtd"><svg t="1761964210623" class="icon" viewBox="0 0 1287 1024" version="1.1" xmlns="http://www.w3.org/2000/svg" p-id="1593" xmlns:xlink="http://www.w3.org/1999/xlink" width="251.3671875" height="200"><path d="M544.84355441 23.05963606c48.75657811-2.13007401 87.95548419 16.32135072 117.56905448 55.32661323 6.91582666 193.58782011 9.22571237 387.23096639 6.91582665 580.92944018-22.7392379 2.95997315-43.48671786-1.65979829-62.24243987-13.83165331-6.91582666-184.37593963-9.22571237-368.79337353-6.91582666-553.26613358-18.28544629-2.35138137-34.42698532 2.25455957-48.41078794 13.83165332l-13.8316533 677.75101332c-74.92606627 79.18621565-134.85862041 69.96050191-179.81149298-27.66330662l-13.83165329-428.78125243c-13.83165331-18.43759424-27.66330661-18.43759424-41.49495992 0l-13.83165331 221.30645286c-49.80778323 66.68240098-105.13439645 71.28834191-165.97983966 13.8316533-20.15271868-39.64151804-24.75865961-81.13647796-13.8316533-124.48487973 18.75572202-12.17185503 39.50320196-16.79162784 62.24243987-13.8316533-2.25455957 32.6012072 0.04149565 64.87045475 6.91582665 96.82157313 13.98380124 11.57709374 30.12534029 16.18303467 48.41078656 13.83165331a873.38591754 873.38591754 0 0 1 20.74747997-248.9697595c59.39311903-56.72360988 114.71973223-52.11767034 165.97983966 13.83165331l13.8316533 456.44455905c13.98380124 11.57709374 30.12534029 16.18303467 48.41078657 13.83165331-2.30988572-221.36178041 0-442.66823329 6.91582664-663.91936001 8.28516093-38.09237343 29.03264089-65.75568003 62.24243988-82.98991984z" p-id="1594" fill="#273B3E"></path><path d="M793.81331527 23.05963606c49.25451759-1.86727376 88.45342367 16.57032048 117.56905311 55.32661323l13.83165328 608.59274678c23.70745449 19.71010533 42.14504736 15.10416578 55.32661324-13.83165329l13.8316533-387.28629254c59.96021654-58.48022996 115.28683114-53.8742904 165.97983966 13.83165331 6.91582666 119.78211839 9.21188049 239.66105721 6.91582665 359.62298592h-55.32661322c2.29605382-106.14410731 0-212.1775623-6.91582664-318.128026-14.93818595-26.19715191-33.37577882-30.80309147-55.32661324-13.8316533l-13.83165329 387.28629252c-49.80778323 66.68240098-105.13439645 71.28834191-165.97983966 13.83165331a5123.43803794 5123.43803794 0 0 1-20.74747995-636.25605342c-18.28544629-2.35138137-34.42698532 2.25455957-48.41078658 13.83165332l-13.8316533 760.74093453c-74.23448318 79.39368975-134.16703733 70.16797738-179.81149296-27.663308a224.76436689 224.76436689 0 0 1 0-110.65322643c14.93818595-26.19715191 33.37577882-30.80309147 55.32661322-13.83165331l13.8316533 124.48487974c13.98380124 11.57709374 30.12534029 16.18303467 48.41078657 13.83165469-2.30988572-249.01125514 0-497.98101462 6.91582664-746.90928122 8.28516093-38.09237343 29.03264089-65.75568003 62.24243987-82.98991984z" p-id="1595" fill="#273B3E"></path></svg>