<?xml version="1.0" standalone="no"?><!DOCTYPE svg PUBLIC "-//W3C//DTD SVG 1.1//EN" "http://www.w3.org/Graphics/SVG/1.1/DTD/svg11.dtd"><svg t="1761964359039" class="icon" viewBox="0 0 1024 1024" version="1.1" xmlns="http://www.w3.org/2000/svg" p-id="1618" xmlns:xlink="http://www.w3.org/1999/xlink" width="200" height="200"><path d="M147.84 511.968c21.568 0 105.088-18.656 148.256-43.136 43.2-24.448 43.2-24.448 132.48-87.808 112.992-80.192 192.928-53.344 323.936-53.344" fill="#273B3E" p-id="1619"></path><path d="M466.08 433.856l-1.216 0.864c-88.256 62.624-90.752 64.384-136.8 90.496-28.896 16.352-66.944 28.8-97.504 36.96-29.12 7.776-62.656 14.56-82.752 14.56v-129.568c-0.224 0-0.128 0 0.352-0.064a183.04 183.04 0 0 0 14.08-2.144c9.76-1.792 21.92-4.512 34.944-8 27.36-7.264 52.672-16.352 66.976-24.48l3.2-1.792c36.864-20.896 37.056-21.024 123.712-82.496 108.832-77.248 202.88-72.384 295.168-67.584 22.144 1.12 44.16 2.272 66.272 2.272v129.6c-34.784 0-64-1.28-89.6-2.432-82.976-3.648-127.2-5.6-196.832 43.84z" fill="#273B3E" p-id="1620"></path><path d="M879.2 328.48l-221.344 127.808V200.64l221.344 127.808z" fill="#273B3E" p-id="1621"></path><path d="M657.12 199.424l223.52 129.056-223.52 129.056V199.424z m1.44 2.496v253.12l219.2-126.56-219.2-126.56z" fill="#273B3E" p-id="1622"></path><path d="M143.488 512.032c21.6 0 105.12 18.656 148.288 43.136 43.2 24.448 43.2 24.448 132.48 87.808C537.28 723.2 617.184 696.32 748.16 696.32" fill="#273B3E" p-id="1623"></path><path d="M143.84 576.896c-0.48-0.064-0.576-0.064-0.32-0.064v-129.6c20.064 0 53.568 6.816 82.72 14.592 30.56 8.128 68.608 20.608 97.504 36.96 46.08 26.112 48.512 27.84 136.8 90.496l1.216 0.864c69.632 49.408 113.856 47.456 196.832 43.808a1936.64 1936.64 0 0 1 89.6-2.4v129.568c-22.08 0-44.16 1.152-66.272 2.272-92.288 4.8-186.336 9.664-295.168-67.584-86.656-61.472-86.848-61.6-123.712-82.496a2162.176 2162.176 0 0 0-3.2-1.792c-14.304-8.096-39.616-17.216-66.976-24.48a474.944 474.944 0 0 0-34.912-8c-8.224-1.504-12.736-1.984-14.08-2.144z" fill="#273B3E" p-id="1624"></path><path d="M874.88 695.52l-221.344-127.808v255.616l221.344-127.808z" fill="#273B3E" p-id="1625"></path><path d="M652.8 566.496l223.52 129.024-223.52 129.056v-258.112z m1.44 2.464v253.12l219.2-126.56-219.2-126.56z" fill="#273B3E" p-id="1626"></path></svg>