<?xml version="1.0" standalone="no"?><!DOCTYPE svg PUBLIC "-//W3C//DTD SVG 1.1//EN" "http://www.w3.org/Graphics/SVG/1.1/DTD/svg11.dtd"><svg t="1761964187888" class="icon" viewBox="0 0 1024 1024" version="1.1" xmlns="http://www.w3.org/2000/svg" p-id="2199" xmlns:xlink="http://www.w3.org/1999/xlink" width="200" height="200"><path d="M512 84.992c7.168 0 13.824 4.096 17.408 10.24l52.224 91.648h220.672c5.632 0 11.264 2.56 14.848 6.656l2.56 3.584 58.368 101.376c3.584 6.144 3.584 13.824 0 20.48l-52.224 91.648 57.344 100.864 52.736 92.672c3.584 6.144 3.584 13.824 0 20.48l-57.856 101.888c-3.584 6.144-10.24 10.24-17.408 10.24h-104.448l-110.592 193.024c-3.584 6.144-10.24 10.24-17.408 10.24H512c-7.168 0-13.824-4.096-17.408-10.24l-52.224-91.648H221.696c-7.168 0-13.824-4.096-17.408-10.24l-58.368-101.376c-3.584-6.144-3.584-13.824 0-20.48L198.144 614.4 88.064 420.352c-3.072-5.12-3.584-10.752-1.536-16.384l1.536-4.096 58.368-101.376c3.584-6.144 10.24-10.24 17.408-10.24h104.448l57.344-100.864 52.736-92.672c3.584-6.144 10.24-10.24 17.408-10.24H512zM673.792 430.08l-218.624 386.048h-23.04l69.12-121.856L348.672 430.08 279.552 309.76H163.328l233.984 404.992-116.224 0.512-57.344 101.376 231.936-1.024 58.368 101.376 230.4-407.04 58.368 101.376 115.712-0.512-104.96-182.272-139.776 1.536z m127.488-20.992l57.856-101.376-464.384 2.048 57.344-101.888L394.24 107.008 279.552 309.76l11.264-19.968 70.144 121.344 150.528-0.512 154.624-0.512h19.456l115.712-1.024z" p-id="2200"></path></svg>