<?xml version="1.0" standalone="no"?><!DOCTYPE svg PUBLIC "-//W3C//DTD SVG 1.1//EN" "http://www.w3.org/Graphics/SVG/1.1/DTD/svg11.dtd"><svg t="1761964318040" class="icon" viewBox="0 0 1024 1024" version="1.1" xmlns="http://www.w3.org/2000/svg" p-id="1651" xmlns:xlink="http://www.w3.org/1999/xlink" width="200" height="200"><path d="M511.613122 1002.792439a10.239942 10.239942 0 0 0-10.410608 10.581274 10.239942 10.239942 0 0 0 10.410608 10.62394 10.261276 10.261276 0 0 0 10.453275-10.62394 10.239942 10.239942 0 0 0-9.386614-10.538607l-1.066661-0.042667z m-98.98611-773.883647a72.404926 72.404926 0 0 1 46.890403 90.964822l-3.029316 7.338625-0.682663 1.706657-0.767996 2.303988c-2.98665 6.826628-4.437308 13.653257-4.437308 21.24788-1.493325 30.293163 20.053221 54.57036 50.602382 56.063685h15.615912c55.850353 2.261321 99.754106 50.047718 97.535452 107.647394-2.218654 56.83168-49.151724 101.546095-105.727406 99.284775h-7.423958c-30.506495 0.767996-54.357028 27.306513-52.863703 58.367672 0 5.290637 0.767996 9.813278 2.261321 14.378585a73.55692 73.55692 0 0 0 40.95977 34.133142c31.99982 9.813278 64.724969-5.333303 81.06621-33.365146l0.767996-1.493325c17.151904-27.306513 49.919719-40.95977 81.919539-30.335829 36.437128 12.117265 58.794336 52.309039 46.890403 92.458146a70.847601 70.847601 0 0 1-88.618168 47.018403 73.002256 73.002256 0 0 1-38.698449-30.33583l-0.725329-1.493325c-8.533285-13.781256-19.754556-24.746527-36.309129-30.335829l-2.38932-0.767996a70.228938 70.228938 0 0 0-83.370198 31.829155 70.826268 70.826268 0 0 1-45.439744 32.59715 71.551598 71.551598 0 0 1-84.863523-54.57036c-8.917283-38.655783 14.165254-78.079561 53.631698-87.16751 4.159977-0.917328 8.383953-1.407992 12.629263-1.493325h0.767995c29.01317-3.029316 49.109057-26.538517 47.615732-56.874347a55.743686 55.743686 0 0 0-9.685278-29.567833 107.327396 107.327396 0 0 1-15.615913-59.860997 101.97276 101.97276 0 0 1 15.615913-51.541043c5.9733-8.319953 8.95995-18.943893 9.685278-29.567834 0.767996-30.293163-21.589212-53.802364-50.602382-56.83168l-2.98665-0.767996a61.07699 61.07699 0 0 1-12.757261-2.98665l-2.133321-0.810662a72.532925 72.532925 0 0 1-44.671749-90.196826 71.679597 71.679597 0 0 1 89.343497-46.975736zM174.761684 660.266366a43.413089 43.413089 0 0 1 42.410428-11.519935c15.146581 4.095977 27.007848 16.170576 31.061158 31.573156a45.354412 45.354412 0 0 1-11.391936 43.22109c-17.151904 17.493235-44.927747 17.493235-62.07965 0a45.311745 45.311745 0 0 1 0-63.274311z m633.383104-12.543929a43.391756 43.391756 0 0 1 42.325095 12.671928c10.837272 11.690601 14.677251 28.373174 10.111943 43.733088a44.287751 44.287751 0 0 1-32.255819 30.634494c-23.509201 5.461303-46.933069-9.386614-52.479704-33.322479a44.799748 44.799748 0 0 1 32.298485-53.717031z m-2.730652-187.305614c13.397258 13.653257 20.906549 32.127819 20.906549 51.455711 0 19.285225-7.509291 37.802454-20.906549 51.455711-13.439924 13.653257-31.573156 21.333213-50.559715 21.333213-18.943893 0-37.119791-7.679957-50.51705-21.333213a73.684919 73.684919 0 0 1 0-102.911422 70.57027 70.57027 0 0 1 101.076765 0z m-479.698635 6.954628c15.530579 20.650551 19.071893 48.127729 9.301281 72.148928a71.0396 71.0396 0 0 1-93.354141 39.381111c-36.479795-15.359914-53.759698-57.941007-38.698449-95.060798a71.679597 71.679597 0 0 1 56.746347-44.287751 70.826268 70.826268 0 0 1 66.004962 27.81851z m492.583896-180.094987c15.701245 0 30.20783 8.533285 38.058453 22.357208a45.397078 45.397078 0 0 1 0 44.714415 43.754421 43.754421 0 0 1-38.058453 22.357207c-24.23453 0-43.946419-20.053221-43.946419-44.714415 0-24.703861 19.711889-44.714415 43.946419-44.714415z m-612.604554 0c15.701245 0 30.165164 8.533285 38.015786 22.357208a45.397078 45.397078 0 0 1 0 44.714415 43.754421 43.754421 0 0 1-38.015786 22.357207c-24.277197 0-43.946419-20.053221-43.94642-44.714415 0-24.703861 19.669223-44.714415 43.94642-44.714415z m427.986926-62.932979c39.466445 0 71.466265 32.59715 71.466265 72.788924s-31.99982 72.746257-71.466265 72.746257-71.423598-32.554484-71.423598-72.746257c0-40.191774 31.99982-72.788924 71.423598-72.788924z m-112.042037-29.183836a44.202418 44.202418 0 0 0 32.469151-30.634494 45.311745 45.311745 0 0 0-10.154609-43.861087 43.370423 43.370423 0 0 0-42.495761-12.54393c-23.338535 5.9733-37.589122 29.866499-32.085153 53.631699 5.546635 23.807866 28.799838 38.698449 52.266372 33.407812z m0 720.038616a44.287751 44.287751 0 0 0 31.99982-30.719827 45.311745 45.311745 0 0 0-10.111943-43.477089 43.434422 43.434422 0 0 0-42.02643-12.842594 44.245084 44.245084 0 0 0-32.511817 30.591828 45.333078 45.333078 0 0 0 10.197276 43.861086c10.453275 11.22127 25.855855 16.085243 40.661105 13.013261l1.834656-0.426665h-0.042667zM733.435874 149.335907a26.922515 26.922515 0 0 0 26.794516-27.306513c0-15.146581-11.903933-27.306513-26.794516-27.306513a26.922515 26.922515 0 0 0-26.794516 27.306513c0 15.146581 11.946599 27.306513 26.794516 27.306513zM290.558366 149.335907a26.922515 26.922515 0 0 0 26.794516-27.306513c0-15.146581-11.946599-27.306513-26.794516-27.306513a26.922515 26.922515 0 0 0-26.794516 27.306513c0 15.146581 11.903933 27.306513 26.794516 27.306513zM69.460943 484.352689A26.922515 26.922515 0 0 0 42.666427 511.659202c0 15.103915 11.946599 27.263847 26.794516 27.263847A26.879849 26.879849 0 0 0 96.212792 513.067194l0.042667-1.450659a26.453185 26.453185 0 0 0-26.794516-27.306513v0.042667z m221.097423 389.544475a26.943848 26.943848 0 0 0-26.794516 27.306513c0 15.146581 11.903933 27.306513 26.794516 27.306513a26.922515 26.922515 0 0 0 26.794516-27.306513c0-15.146581-11.946599-27.306513-26.794516-27.306513zM733.435874 874.66516a26.943848 26.943848 0 0 0-26.794516 27.306513c0 15.146581 11.946599 27.306513 26.794516 27.306513a26.922515 26.922515 0 0 0 26.794516-27.306513c0-15.146581-11.903933-27.306513-26.794516-27.306513z m221.097423-390.312471a26.943848 26.943848 0 0 0-26.794516 27.306513c0 15.103915 11.903933 27.263847 26.794516 27.263847A26.922515 26.922515 0 0 0 981.327813 511.616535c0-15.146581-11.946599-27.306513-26.794516-27.306513v0.042667z m-16.383907-212.990802a10.239942 10.239942 0 0 0 10.410608-10.62394 10.239942 10.239942 0 0 0-10.410608-10.623941 10.282609 10.282609 0 0 0-10.410609 10.623941c0 6.058633 5.205304 10.62394 10.410609 10.62394zM511.613122 21.208627a10.239942 10.239942 0 0 0 10.453275-10.581273A10.239942 10.239942 0 0 0 511.570456 0.003413a10.239942 10.239942 0 0 0-10.410608 10.623941c0 5.674635 4.607974 10.069277 9.514613 10.538607l0.895995 0.042666h0.042666zM85.802184 271.361887a10.239942 10.239942 0 0 0 10.453275-10.62394 10.239942 10.239942 0 0 0-10.410609-10.623941 10.282609 10.282609 0 0 0-10.410608 10.623941 10.239942 10.239942 0 0 0 10.410608 10.62394h-0.042666z m0 480.551963a10.239942 10.239942 0 0 0-10.367942 10.581274 10.239942 10.239942 0 0 0 10.410608 10.623941 10.197276 10.197276 0 0 0 10.410609-10.623941 10.75194 10.75194 0 0 0-10.410609-10.581274h-0.042666z m853.115201-0.767995a10.239942 10.239942 0 0 0-10.453274 10.581274 10.239942 10.239942 0 0 0 10.453274 10.666606 10.197276 10.197276 0 0 0 10.410608-10.666606 10.75194 10.75194 0 0 0-10.410608-10.581274z" fill="#273B3E" p-id="1652"></path></svg>